<svg xmlns="http://www.w3.org/2000/svg" width="54.52" height="58.39" viewBox="0 0 54.52 58.39"><defs><style>.cls-1{fill:#fff;}.cls-2{fill:#feb699;}.cls-3{fill:#ffd1bf;}.cls-4,.cls-6{fill:none;}.cls-4,.cls-5,.cls-6{stroke:#000;stroke-miterlimit:10;}.cls-4{stroke-width:3.32px;}.cls-5{fill:#ffece6;stroke-width:2.69px;}.cls-6{stroke-linecap:round;stroke-width:2.79px;}</style></defs><g id="Layer_2" data-name="Layer 2"><g id="Layer_1-2" data-name="Layer 1"><rect class="cls-1" x="5.69" y="11.47" width="47.16" height="45.26" rx="4.78" transform="translate(58.55 68.2) rotate(-180)"/><circle class="cls-1" cx="16.7" cy="24.03" r="1.57"/><polygon class="cls-2" points="33.21 37.82 19.87 55.16 38.72 55.16 38.72 37.82 33.21 37.82"/><polygon class="cls-2" points="51.28 26.69 41.86 23.16 41.86 34.68 51.28 34.68 51.28 26.69"/><path class="cls-3" d="M48.08,13H41.86V19.8l9.43,3.53V16.25A3.21,3.21,0,0,0,48.08,13Z"/><path class="cls-3" d="M51.29,52V37.82H41.86V55.16h6.22A3.21,3.21,0,0,0,51.29,52Z"/><path class="cls-3" d="M10.47,55.16H15.9L29.24,37.82h-22V52A3.21,3.21,0,0,0,10.47,55.16Z"/><rect class="cls-2" x="7.27" y="13.04" width="31.45" height="21.64" transform="translate(45.98 47.71) rotate(-180)"/><path d="M4.12,34.68V52a6.36,6.36,0,0,0,6.35,6.35H48.08A6.36,6.36,0,0,0,54.43,52V16.25a6.36,6.36,0,0,0-6.35-6.36H38.72V34.68H4.12Zm37.74,3.14h9.43V52a3.21,3.21,0,0,1-3.21,3.21H41.86Zm0-14.66,9.43,3.53v8H41.86Zm0-10.12h6.22a3.21,3.21,0,0,1,3.21,3.21v7.08L41.86,19.8Zm-22,42.12L33.21,37.82h5.51V55.16ZM7.27,37.82h22L15.9,55.16H10.47A3.21,3.21,0,0,1,7.27,52Z"/><rect class="cls-4" x="5.69" y="11.47" width="47.16" height="45.26" rx="4.78" transform="translate(58.55 68.2) rotate(-180)"/><circle class="cls-5" cx="15.13" cy="15.13" r="13.79"/><line class="cls-6" x1="15.13" y1="8.41" x2="15.13" y2="21.86"/><line class="cls-6" x1="21.86" y1="15.13" x2="8.41" y2="15.13"/></g></g></svg>