<svg xmlns="http://www.w3.org/2000/svg" width="89.73" height="52.78" viewBox="0 0 89.73 52.78"><defs><style>.cls-1{fill:#fff;}</style></defs><g id="Layer_2" data-name="Layer 2"><g id="Layer_1-2" data-name="Layer 1"><path class="cls-1" d="M80.91,8.82a21.06,21.06,0,0,0-31.62,2,2,2,0,0,0-.17.23,23.76,23.76,0,0,1-3.28,29.45l-.25.24a20.84,20.84,0,0,0,3,1.89v0a6.6,6.6,0,0,1,12,2.29H66A21.12,21.12,0,0,0,80.91,8.82ZM58.07,18.47a2.64,2.64,0,1,1,2.64,2.64A2.64,2.64,0,0,1,58.07,18.47Zm20.14,9.76a10.55,10.55,0,0,1-19.09,0,1.31,1.31,0,0,1,1.19-1.87h0a1.33,1.33,0,0,1,1.2.75,7.92,7.92,0,0,0,14.31,0A1.29,1.29,0,0,1,77,26.36h0A1.31,1.31,0,0,1,78.21,28.23Zm-1.66-7.12a2.64,2.64,0,1,1,2.64-2.64A2.64,2.64,0,0,1,76.55,21.11Z"/><path d="M89.73,23.73A23.73,23.73,0,0,0,47.52,8.85,25,25,0,0,0,45.82,7,23.7,23.7,0,0,0,10.37,9.11,23.75,23.75,0,0,0,5.29,23.86v3.83a4,4,0,0,1-4.07,4A1.26,1.26,0,0,0,0,32.82c-.1,1.79,1.82,5.08,4.44,7.74a23.19,23.19,0,0,0,6.24,4.5,7,7,0,0,0-.09,1.12,6.6,6.6,0,0,0,13.07,1.33h5.53a6.61,6.61,0,0,0,8.75,4.89,6.29,6.29,0,0,0,3.9-3.82,6.82,6.82,0,0,0,0-4.82c.6-.39,1.19-.81,1.77-1.25a23,23,0,0,0,4.05,2.55,7,7,0,0,0-.09,1.12,6.6,6.6,0,0,0,13.07,1.33h5.53a6.61,6.61,0,0,0,8.75,4.89,6.25,6.25,0,0,0,3.89-3.82,6.77,6.77,0,0,0,0-4.82,23.86,23.86,0,0,0,4-3.24A23.61,23.61,0,0,0,89.73,23.73ZM29.06,44.89h-5.4a6.6,6.6,0,0,0-12-2.29v0a20.69,20.69,0,0,1-5.33-3.94A15.66,15.66,0,0,1,3,34,6.38,6.38,0,0,0,6.15,32.2a6.59,6.59,0,0,0,1.76-4.51V23.76A21.1,21.1,0,1,1,29.06,44.89Zm37,0h-5.4a6.6,6.6,0,0,0-12-2.29v0a20.84,20.84,0,0,1-3-1.89l.25-.24a23.76,23.76,0,0,0,3.28-29.45,2,2,0,0,1,.17-.23A21.1,21.1,0,1,1,66,44.89Z"/><circle cx="76.55" cy="18.47" r="2.64"/><circle cx="60.71" cy="18.47" r="2.64"/><path d="M77,26.36h0a1.29,1.29,0,0,0-1.17.75,7.92,7.92,0,0,1-14.31,0,1.33,1.33,0,0,0-1.2-.75h0a1.31,1.31,0,0,0-1.19,1.87,10.55,10.55,0,0,0,19.09,0A1.31,1.31,0,0,0,77,26.36Z"/><path class="cls-1" d="M44,38.66A21.08,21.08,0,0,0,44,8.82a21.13,21.13,0,0,0-36,14.94v3.93A6.59,6.59,0,0,1,6.15,32.2,6.38,6.38,0,0,1,3,34a15.66,15.66,0,0,0,3.33,4.68,20.69,20.69,0,0,0,5.33,3.94v0a6.6,6.6,0,0,1,12,2.29h5.4A21.14,21.14,0,0,0,44,38.66ZM39.6,15.83A2.64,2.64,0,1,1,37,18.47,2.64,2.64,0,0,1,39.6,15.83ZM21.12,18.47a2.64,2.64,0,1,1,2.64,2.64A2.64,2.64,0,0,1,21.12,18.47Zm1.05,9.76a1.31,1.31,0,0,1,1.19-1.87h0a1.33,1.33,0,0,1,1.2.75,7.92,7.92,0,0,0,14.31,0A1.29,1.29,0,0,1,40,26.36h0a1.31,1.31,0,0,1,1.19,1.87,10.55,10.55,0,0,1-19.09,0Z"/><circle cx="39.6" cy="18.47" r="2.64"/><circle cx="23.76" cy="18.47" r="2.64"/><path d="M41.26,28.23a1.31,1.31,0,0,0-1.19-1.87h0a1.29,1.29,0,0,0-1.17.75,7.92,7.92,0,0,1-14.31,0,1.33,1.33,0,0,0-1.2-.75h0a1.31,1.31,0,0,0-1.19,1.87,10.55,10.55,0,0,0,19.09,0Z"/></g></g></svg>