<svg width="1920" height="400" viewBox="0 0 1920 400" fill="none" xmlns="http://www.w3.org/2000/svg"><path fill="url(#a)" d="M-3 0h1926v400H-3z"/><mask id="c" maskUnits="userSpaceOnUse" x="-3" y="0" width="1926" height="400"><path fill="url(#b)" d="M-3 0h1926v400H-3z"/></mask><g mask="url(#c)"><path stroke="#fff" d="M191.5-60v600m192-600v600m192-600v600m192-600v600m192-600v600" style="mix-blend-mode:overlay" opacity=".1"/><rect x="955" y="37" width="8" height="8.518" rx="4" fill="#fff" opacity=".5"/><rect x="1148" y="259" width="8" height="8.518" rx="4" fill="#fff" opacity=".5"/><rect x="1723" y="379" width="8" height="8.518" rx="4" fill="#fff" opacity=".5"/><path stroke="#fff" d="M1151.5-60v600m192-600v600m192-600v600m192-597v600" style="mix-blend-mode:overlay" opacity=".1"/><path fill="url(#d)" d="M192 355h191v310H192z" style="mix-blend-mode:overlay" opacity=".2"/><path fill="url(#e)" d="M384 304h191v361H384z" style="mix-blend-mode:overlay" opacity=".2"/><path fill="url(#f)" d="M576 211h191v454H576z" style="mix-blend-mode:overlay" opacity=".2"/><path fill="url(#g)" d="M768 103h191v562H768z" style="mix-blend-mode:overlay" opacity=".2"/><path fill="url(#h)" d="M960 192h191v473H960z" style="mix-blend-mode:overlay" opacity=".2"/><path fill="url(#i)" d="M1152 36h191v629h-191z" style="mix-blend-mode:overlay" opacity=".2"/><path fill="url(#j)" d="M1344 141h191v524h-191z" style="mix-blend-mode:overlay" opacity=".2"/><path fill="url(#k)" d="M1536 249h191v416h-191z" style="mix-blend-mode:overlay" opacity=".2"/><path fill="url(#l)" d="M1728 340h191v325h-191z" style="mix-blend-mode:overlay" opacity=".2"/></g><defs><linearGradient id="a" x1="-45.5" y1="-12" x2="1647.8" y2="969.915" gradientUnits="userSpaceOnUse"><stop stop-color="#00C4CC"/><stop offset="1" stop-color="#8D39FA"/></linearGradient><linearGradient id="b" x1="-45.5" y1="-12" x2="1647.8" y2="969.915" gradientUnits="userSpaceOnUse"><stop stop-color="#00C4CC"/><stop offset="1" stop-color="#8D39FA"/></linearGradient><linearGradient id="d" x1="287.5" y1="355" x2="287.5" y2="665" gradientUnits="userSpaceOnUse"><stop stop-color="#0E1318"/><stop offset="1" stop-color="#C4C4C4" stop-opacity="0"/></linearGradient><linearGradient id="e" x1="479.5" y1="304" x2="479.5" y2="665" gradientUnits="userSpaceOnUse"><stop stop-color="#0E1318"/><stop offset="1" stop-color="#C4C4C4" stop-opacity="0"/></linearGradient><linearGradient id="f" x1="671.5" y1="211" x2="671.5" y2="665" gradientUnits="userSpaceOnUse"><stop stop-color="#0E1318"/><stop offset="1" stop-color="#C4C4C4" stop-opacity="0"/></linearGradient><linearGradient id="g" x1="863.5" y1="103" x2="863.5" y2="665" gradientUnits="userSpaceOnUse"><stop stop-color="#0E1318"/><stop offset="1" stop-color="#C4C4C4" stop-opacity="0"/></linearGradient><linearGradient id="h" x1="1055.5" y1="192" x2="1055.5" y2="665" gradientUnits="userSpaceOnUse"><stop stop-color="#0E1318"/><stop offset="1" stop-color="#C4C4C4" stop-opacity="0"/></linearGradient><linearGradient id="i" x1="1247.5" y1="36" x2="1247.5" y2="665" gradientUnits="userSpaceOnUse"><stop stop-color="#0E1318"/><stop offset="1" stop-color="#C4C4C4" stop-opacity="0"/></linearGradient><linearGradient id="j" x1="1439.5" y1="141" x2="1439.5" y2="665" gradientUnits="userSpaceOnUse"><stop stop-color="#0E1318"/><stop offset="1" stop-color="#C4C4C4" stop-opacity="0"/></linearGradient><linearGradient id="k" x1="1631.5" y1="249" x2="1631.5" y2="665" gradientUnits="userSpaceOnUse"><stop stop-color="#0E1318"/><stop offset="1" stop-color="#C4C4C4" stop-opacity="0"/></linearGradient><linearGradient id="l" x1="1823.5" y1="340" x2="1823.5" y2="665" gradientUnits="userSpaceOnUse"><stop stop-color="#0E1318"/><stop offset="1" stop-color="#C4C4C4" stop-opacity="0"/></linearGradient></defs></svg>