<svg xmlns="http://www.w3.org/2000/svg" width="374.94" height="90.52" viewBox="0 0 374.94 90.52">
  <defs>
    <style>
    .cls-1 {
      fill: #fff;
      fill-rule: evenodd;
    }

    .cls-2 {
      font-size: 20px;
      font-family: "Boing","Rubik",sans-serif;
      font-weight: 600;
    }

    .cls-3 {
      letter-spacing: 0.03em;
    }

    .cls-4 {
      letter-spacing: 0.02em;
    }

    .cls-5 {
      letter-spacing: 0em;
    }

    .cls-6 {
      letter-spacing: 0.01em;
    }

    .cls-7 {
      letter-spacing: 0.02em;
    }

    .cls-8 {
      letter-spacing: 0.01em;
    }

    .cls-9 {
      letter-spacing: 0.01em;
    }

    .cls-10 {
      fill: #ff5252;
    }

    .cls-11 {
      fill: #e9e9e9;
    }

    .cls-12 {
      fill: #e8eaed;
    }

    .cls-13 {
      fill: #3cf;
    }

    .cls-14 {
      fill: #b7babf;
    }
    </style>
  </defs>
  <g id="Layer_2" data-name="Layer 2">
    <g id="Layer_1-2" data-name="Layer 1">
      <path d="M372.84,16.31a26.74,26.74,0,0,0-14.2-14.2A26.26,26.26,0,0,0,348.28,0H133.22a27.74,27.74,0,0,0-9.31,1.6,25.82,25.82,0,0,0-8,4.58A25.34,25.34,0,0,0,110,13.34a26.73,26.73,0,0,0-3.07,9.28,32.62,32.62,0,0,0,1.48,14.6,11.76,11.76,0,0,1,.68,3.75,6,6,0,0,1-.72,2.91,6.79,6.79,0,0,1-3.25,2.7l-.34.15a3.53,3.53,0,0,0,1.72,6.62H348.33a26.29,26.29,0,0,0,10.31-2.1,26.68,26.68,0,0,0,14.2-34.94Z" />
      <path class="cls-1" d="M348.27,3.32a23.36,23.36,0,0,1,0,46.71H106.47a.2.2,0,0,1-.09-.38l0,0c4.88-2.17,5.94-5.88,6-8.61a15.38,15.38,0,0,0-.84-4.82,29.22,29.22,0,0,1-1.34-13.12c1.67-11.94,11.48-19.75,23.06-19.75Z" /><text class="cls-2" transform="translate(130.91 33.33)">Together’s how we roll
      </text>
      <path class="cls-10" d="M10.08,19.88a7.85,7.85,0,0,1,14.14-6.57c1.08-.73,2.2-1.41,3.35-2A11.77,11.77,0,0,0,5.75,17.4,11.93,11.93,0,0,0,6,19.88Z" />
      <path class="cls-11" d="M7.68,43.42a35.51,35.51,0,0,1,9.05-23.54H4.06A2.1,2.1,0,0,0,2,22V51.06a2.1,2.1,0,0,0,2.1,2.1H8.82A40.61,40.61,0,0,1,7.68,43.42Z" />
      <path class="cls-12" d="M42.62,80.7H48C70.19,80.7,88.22,64,88.22,43.42S70.19,6.15,48,6.15,7.68,22.84,7.68,43.42a36.34,36.34,0,0,0,3.06,15.24.66.66,0,0,1-.19.8,8,8,0,0,1-4.75,1.6.05.05,0,0,0,0,0c0,3.93,9.92,19.55,29.46,19.58H45.67" />
      <circle class="cls-13" cx="61.3" cy="44.36" r="28.49" />
      <circle class="cls-14" cx="21.09" cy="43.67" r="7.48" />
      <path d="M64.74,43.46a7.81,7.81,0,0,1-7.4-5.25,2,2,0,1,1,3.71-1.27,3.92,3.92,0,0,0,7.38,0,2,2,0,0,1,3.72,1.26A7.81,7.81,0,0,1,64.74,43.46Z" />
      <path d="M41.16,43.46a7.81,7.81,0,0,1-7.4-5.25,2,2,0,0,1,3.72-1.27,3.91,3.91,0,0,0,7.37,0,2,2,0,0,1,3.72,1.26A7.8,7.8,0,0,1,41.16,43.46Z" />
      <path d="M53.45,54.19a7.79,7.79,0,0,1-7.39-5.25,2,2,0,0,1,3.71-1.27,3.91,3.91,0,0,0,7.37,0,2,2,0,1,1,3.72,1.26A7.8,7.8,0,0,1,53.45,54.19Z" />
      <path d="M86.84,28.1a38.91,38.91,0,0,0-9.08-12.47A43.63,43.63,0,0,0,48,4.19a43.62,43.62,0,0,0-29.8,11.44c-.8.74-1.56,1.5-2.29,2.29H4.06A4.06,4.06,0,0,0,0,22V51.06a4.06,4.06,0,0,0,4.06,4.06H7.32A31,31,0,0,0,8.5,58.44a6.12,6.12,0,0,1-2.72.66,2,2,0,0,0-1.42.6,2.07,2.07,0,0,0-.57,1.43c0,1.94,1.37,4.41,2.17,5.72a31.84,31.84,0,0,0,5.9,7,34.45,34.45,0,0,0,7.79,5.27,9.66,9.66,0,0,0-.14,1.62,9.81,9.81,0,0,0,19.43,2h8.24a9.81,9.81,0,0,0,19.42-2,10.51,10.51,0,0,0-.19-2,42.47,42.47,0,0,0,11.35-7.52,39,39,0,0,0,9.08-12.47,36.83,36.83,0,0,0,0-30.65ZM5.72,43.42a43.37,43.37,0,0,0,.68,7.77H4.06a.13.13,0,0,1-.14-.13V22a.14.14,0,0,1,.14-.14h8.62A39,39,0,0,0,9.06,28.1,36.73,36.73,0,0,0,5.72,43.42ZM48,78.74h-9a9.81,9.81,0,0,0-17.86-3.32,30.93,30.93,0,0,1-6.59-4.51A25.35,25.35,0,0,1,8.2,62.71,9.77,9.77,0,0,0,11.73,61a2.63,2.63,0,0,0,.79-3.19A34.4,34.4,0,0,1,9.65,43.42,33.73,33.73,0,0,1,20.81,18.51,39.7,39.7,0,0,1,48,8.11,39.75,39.75,0,0,1,75.1,18.51c.5.46,1,.94,1.46,1.43a28.79,28.79,0,1,0-5.11,51.38A40.11,40.11,0,0,1,48,78.74ZM71.34,67.13a24.88,24.88,0,1,1-10-47.64h.12a31.69,31.69,0,0,1,12,11.05,31.36,31.36,0,0,1-2.13,36.59Zm8-5.63a35.28,35.28,0,0,0-8.44-40.1,24.89,24.89,0,0,1,8.44,40.1Z" />
    </g>
  </g>
</svg>