<?xml version="1.0" encoding="utf-8"?>
<!-- Generator: Adobe Illustrator 24.0.2, SVG Export Plug-In . SVG Version: 6.00 Build 0)  -->
<svg version="1.1" id="Layer_1" xmlns="http://www.w3.org/2000/svg" xmlns:xlink="http://www.w3.org/1999/xlink" x="0px" y="0px"
	 width="89.9px" height="80.9px" viewBox="0 0 89.9 80.9" style="enable-background:new 0 0 89.9 80.9;" xml:space="preserve">
<style type="text/css">
	.st0{fill:#FFC400;}
	.st1{fill:#1EE592;}
	.st2{fill:#FFFFFF;}
</style>
<g>
	<circle class="st0" cx="74.9" cy="35.9" r="13.2"/>
	<path class="st0" d="M6.8,40.1C6.8,19,23.9,1.9,45,1.9c15.8,0,29.4,9.6,35.2,23.3"/>
	<path class="st1" d="M13.2,39.7C13.2,22.1,27.4,7.9,45,7.9c17.5,0,31.8,14.3,31.8,31.8c0,17.6-14.2,31.8-31.8,31.8
		c0,0-11.2,0-11.2,0c-18.7,0-28.1-15.1-28.1-18.7c4.5,0,7.5-3.7,7.5-7.5V39.7z"/>
	<path class="st1" d="M13.2,39.7C13.2,22.1,27.4,7.9,45,7.9c17.5,0,31.8,14.3,31.8,31.8c0,17.6-14.2,31.8-31.8,31.8
		c0,0-11.2,0-11.2,0c-18.7,0-28.1-15.1-28.1-18.7c4.5,0,7.5-3.7,7.5-7.5V39.7z"/>
	<g>
		<path d="M50.6,54.7c-3.1,0-5.6-2.5-5.6-5.6c0-3.1,2.5-5.6,5.6-5.6c3.1,0,5.6,2.5,5.6,5.6C56.2,52.2,53.7,54.7,50.6,54.7z
			 M50.6,47.2c-1,0-1.9,0.8-1.9,1.9s0.8,1.9,1.9,1.9c1,0,1.9-0.8,1.9-1.9S51.6,47.2,50.6,47.2z"/>
	</g>
	<circle class="st0" cx="15" cy="35.9" r="13.2"/>
	<circle class="st0" cx="15" cy="35.9" r="13.2"/>
	<g>
		<circle class="st0" cx="15.1" cy="36" r="4.4"/>
		<path d="M15.1,42.3c-3.4,0-6.3-2.8-6.3-6.3c0-3.4,2.8-6.3,6.3-6.3s6.3,2.8,6.3,6.3C21.3,39.4,18.5,42.3,15.1,42.3z M15.1,33.5
			c-1.4,0-2.5,1.1-2.5,2.5s1.1,2.5,2.5,2.5s2.5-1.1,2.5-2.5S16.5,33.5,15.1,33.5z"/>
	</g>
	<path d="M89.9,35.9c0-6.2-3.7-11.5-9-13.8C77.8,16,73.2,10.7,67.4,6.8C60.8,2.4,53,0,45,0C34.3,0,24.2,4.2,16.7,11.7
		c-3.1,3.1-5.6,6.6-7.5,10.4C3.8,24.4,0,29.7,0,35.9c0,6.2,3.8,11.5,9.1,13.8c-0.9,0.7-2.1,1.1-3.5,1.1c-1,0-1.9,0.8-1.9,1.9
		c0,2.6,2.5,7.1,6.3,10.8c2.6,2.6,5.6,4.8,8.9,6.4c-0.1,0.5-0.1,1-0.1,1.5c0,5.2,4.2,9.4,9.4,9.4c4.5,0,8.3-3.2,9.2-7.5l7.7,0
		c0.1,0,0.1,0,0.2,0c0.9,4.3,4.6,7.5,9.2,7.5c5.2,0,9.4-4.2,9.4-9.4c0-1.2-0.2-2.3-0.6-3.4c2-1.3,4-2.8,5.7-4.6
		c3.6-3.6,6.3-8,8-12.7C84.2,49.9,89.9,43.6,89.9,35.9z M19.3,14.4C26.2,7.5,35.3,3.7,45,3.7c7.3,0,14.3,2.1,20.3,6.2
		c5.5,3.7,9.9,8.8,12.6,14.8l0,0h-2.8c-1.6-3.2-3.8-6.2-6.4-8.9C62.4,9.5,54,6,45,6c-9,0-17.5,3.5-23.8,9.9c-1.6,1.6-3,3.3-4.2,5.2
		c-0.6-0.1-1.3-0.1-1.9-0.1c-0.3,0-0.6,0-0.9,0C15.6,18.6,17.3,16.4,19.3,14.4z M70.9,24.7H25.1c-1.3-1.1-2.7-2-4.3-2.7
		c0.9-1.2,1.9-2.4,3-3.5C29.5,12.9,37,9.7,45,9.7c8,0,15.5,3.1,21.2,8.8C68,20.4,69.6,22.5,70.9,24.7z M3.7,35.9
		c0-6.2,5.1-11.3,11.3-11.3c6.2,0,11.3,5.1,11.3,11.3c0,6.2-5.1,11.3-11.3,11.3C8.8,47.2,3.7,42.2,3.7,35.9z M66.2,60.9
		C60.5,66.5,53,69.6,45,69.6c0,0-4.4,0-7.7,0c-0.9-4.3-4.6-7.5-9.2-7.5c-3.3,0-6.2,1.7-7.9,4.3c-2.8-1.4-5.3-3.3-7.6-5.5
		c-2.6-2.6-4-5.1-4.7-6.6c1.7-0.4,3.2-1.3,4.5-2.6c0.3-0.3,0.5-0.6,0.7-0.9c0.6,0.1,1.2,0.1,1.8,0.1c4.7,0,8.9-2.2,11.7-5.5
		c2.1,1.1,4.5,1.7,7,1.7c8.2,0,14.9-6.7,15-14.9h3.8c0.1,8.2,6.8,14.9,15,14.9c2.5,0,4.8-0.6,6.9-1.7C73.3,51.3,70.4,56.6,66.2,60.9
		z M77.9,46.8c0.3-1.5,0.5-3,0.7-4.6c2.4-2.7,3.9-6.2,3.9-10.1c0-0.1,0-0.2,0-0.3v-4.2c2.3,2.1,3.7,5,3.7,8.3
		C86.2,41.1,82.7,45.5,77.9,46.8z"/>
	<g>
		<path class="st2" d="M31.9,39.7c-0.6,0-1.3-0.3-1.6-0.9c-0.5-0.9-0.2-2,0.6-2.6l9.4-5.6c0.9-0.5,2-0.2,2.6,0.6
			c0.5,0.9,0.2,2-0.6,2.6l-9.4,5.6C32.5,39.6,32.2,39.7,31.9,39.7z"/>
	</g>
	<g>
		<path class="st2" d="M65.6,39.7c-0.6,0-1.3-0.3-1.6-0.9c-0.5-0.9-0.2-2,0.7-2.6l9.5-5.6c0.9-0.5,2-0.2,2.6,0.7
			c0.5,0.9,0.2,2-0.7,2.6l-9.5,5.6C66.2,39.6,65.9,39.7,65.6,39.7z"/>
	</g>
</g>
</svg>
