<?xml version="1.0" encoding="utf-8"?>
<!-- Generator: Adobe Illustrator 24.0.2, SVG Export Plug-In . SVG Version: 6.00 Build 0)  -->
<svg version="1.1" id="Layer_1" xmlns="http://www.w3.org/2000/svg" xmlns:xlink="http://www.w3.org/1999/xlink" x="0px" y="0px"
	 width="78.1px" height="84.7px" viewBox="0 0 78.1 84.7" style="enable-background:new 0 0 78.1 84.7;" xml:space="preserve">
<style type="text/css">
	.st0{fill:#0099FF;}
	.st1{fill:#FF5252;}
	.st2{fill:#FFC400;}
	.st3{fill:none;stroke:#000000;stroke-width:3.6821;stroke-linejoin:round;stroke-miterlimit:10;}
	.st4{fill:#FFFFFF;}
</style>
<g>
	<g>
		<path class="st0" d="M9.7,44.1c0-17.3,14-31.3,31.3-31.3c17.2,0,31.3,14.1,31.3,31.3c0,17.3-14,31.3-31.3,31.3c0,0-11,0-11,0
			C11.5,75.4,2.3,60.6,2.3,57c4.4,0,7.4-3.6,7.4-7.3V44.1z"/>
	</g>
	<g>
		<path class="st1" d="M6.9,54.7"/>
	</g>
	<g>
		<path class="st1" d="M52,3.5c-13.4-4-29.2-1.1-39.5,8.7c-2.3,2.2-4.2,4.6-5.8,7.3C1.3,28.5,0.3,40.1,4.1,50
			c1.3,3.4,3.2,6.6,6.2,8.6s7.2,2.4,10.1,0.3c2.6-1.9,3.5-5.3,3.7-8.5c0.2-3.2-0.3-6.4,0.1-9.6c0.2-1.6,0.7-3.3,1.7-4.6
			c2.3-2.8,6.4-3.1,10.1-3.1c11.3,0,22.7-0.1,34-0.1c1.5,0,3.1,0,4.4-0.9c1.3-0.9,1.9-2.5,1.9-4c0-1.5-0.5-3-1.1-4.5
			c-5-12-16.6-19.8-29.3-21.5c-6.1-0.8-12.3-0.4-18.2,1.3"/>
	</g>
	<rect x="2.4" y="33.8" class="st2" width="22.8" height="6"/>
	<circle cx="15.1" cy="51.6" r="3.7"/>
	<path d="M48.3,60.3c-3.1,0-5.9-2-6.9-4.9c-0.3-1,0.2-2,1.1-2.3c1-0.3,2,0.2,2.3,1.1c0.5,1.5,1.9,2.4,3.5,2.4c1.6,0,3-1,3.5-2.4
		c0.3-1,1.4-1.5,2.3-1.2c1,0.3,1.5,1.4,1.2,2.3C54.2,58.3,51.4,60.3,48.3,60.3z"/>
	<g>
		<path class="st3" d="M6.9,54.7"/>
	</g>
	<path class="st2" d="M48.8,26.8c-0.2,0-0.2-0.2-0.1-0.3l9.9-9.9c0.1-0.1,0-0.3-0.1-0.3H35.3c-0.2,0-0.2-0.2-0.1-0.3L46.8,4.3
		c0,0,0,0,0,0c-0.4-0.1-0.8-0.1-1.1-0.2c-5.9-0.8-11.9-0.4-17.4,1.2l0,0c-0.3,0.1-0.6,0.2-1,0.3c-0.1,0-0.2,0.1-0.3,0.1
		c-0.2,0.1-0.4,0.1-0.6,0.2c-0.1,0-0.2,0.1-0.4,0.1c-0.2,0.1-0.4,0.1-0.6,0.2c-0.1,0-0.3,0.1-0.4,0.1c-0.2,0.1-0.4,0.1-0.6,0.2
		c-0.1,0.1-0.3,0.1-0.4,0.2c-0.2,0.1-0.4,0.2-0.6,0.2c-0.1,0.1-0.2,0.1-0.4,0.2c-0.2,0.1-0.4,0.2-0.6,0.3c-0.1,0-0.2,0.1-0.3,0.1
		c-0.3,0.1-0.6,0.3-0.9,0.4c0,0-0.1,0.1-0.1,0.1c-0.2,0.1-0.5,0.3-0.7,0.4c-0.1,0.1-0.2,0.1-0.3,0.2C20,8.9,19.8,9,19.7,9.1
		c-0.1,0.1-0.2,0.1-0.4,0.2c-0.2,0.1-0.3,0.2-0.5,0.3c-0.1,0.1-0.2,0.2-0.4,0.2c-0.2,0.1-0.3,0.2-0.5,0.3c-0.1,0.1-0.2,0.2-0.4,0.2
		c-0.2,0.1-0.3,0.2-0.4,0.3c-0.1,0.1-0.2,0.2-0.3,0.2c-0.2,0.1-0.3,0.2-0.5,0.4c-0.1,0.1-0.2,0.2-0.3,0.2c-0.2,0.2-0.5,0.4-0.7,0.6
		c0,0,0,0,0,0c-0.1,0.1-0.2,0.2-0.3,0.2c-0.1,0.1-0.3,0.3-0.4,0.4c0,0-0.1,0.1-0.1,0.1c-0.1,0.1-0.2,0.2-0.3,0.3
		c-0.1,0.1-0.2,0.2-0.4,0.3c0,0,0,0,0,0c-0.2,0.2-0.3,0.3-0.5,0.5c0,0-0.1,0.1-0.1,0.1c-0.2,0.2-0.3,0.3-0.5,0.5c0,0,0,0,0,0
		c0,0,0,0,0,0c-0.2,0.2-0.4,0.4-0.5,0.6c0,0,0,0,0,0c0,0,0,0,0,0c-0.2,0.2-0.4,0.4-0.5,0.6h12.9c0.2,0,0.2,0.2,0.1,0.3l-7.5,7.5
		c-0.1,0.1,0,0.3,0.1,0.3h24.1c0.2,0,0.2,0.2,0.1,0.3l-7,7c0.6,0,1.1,0,1.6,0L55,31.2l4.4-4.4L48.8,26.8z"/>
	<path d="M75.3,33.7C75.3,33.7,75.3,33.7,75.3,33.7C75.3,33.7,75.3,33.7,75.3,33.7c1.7-1.2,2.7-3.2,2.8-5.5c0-1.9-0.6-3.7-1.2-5.2
		c-2.5-6.1-6.8-11.4-12.4-15.3c-3.6-2.5-7.6-4.5-12-5.8l0,0c-7-2.1-14.6-2.4-21.8-0.9c-7.5,1.5-14.3,5-19.5,9.9
		c-2.4,2.3-4.5,4.9-6.2,7.7c-2.8,4.7-4.5,10.1-5,15.8c-0.5,5.6,0.3,11.3,2.2,16.4c0.6,1.5,1.2,2.9,2,4.2C3.7,55,3,55.2,2.3,55.2
		c-1,0-1.8,0.8-1.8,1.8c0,2.6,2.5,7,6.2,10.6c2.6,2.6,5.5,4.7,8.7,6.3c-0.1,0.5-0.1,1-0.1,1.5c0,5.1,4.1,9.2,9.2,9.2
		c4.5,0,8.2-3.2,9-7.4l7.5,0c0.1,0,0.1,0,0.2,0c0.9,4.2,4.6,7.4,9,7.4c5.1,0,9.2-4.1,9.2-9.2c0-1.2-0.2-2.3-0.6-3.3
		c2-1.3,3.9-2.8,5.6-4.5c5.2-5.2,8.4-11.7,9.4-18.9c0.4-0.4,0.8-0.9,1.1-1.3c1.9-2.4,2.8-5.7,2.8-8.8h0
		C77.8,36.3,76.8,34.7,75.3,33.7z M3.8,35h20.7c0,0-0.1,0.1-0.1,0.1c-0.8,1-1.4,2.2-1.7,3.6h-19C3.7,37.4,3.7,36.2,3.8,35z
		 M22.2,42.4c-0.1,1.4,0,2.8,0,4.1c0,1.3,0.1,2.6,0,3.9c-0.1,1.9-0.6,5.4-3,7.1c-2.3,1.7-5.8,1.1-8-0.4c-2.2-1.5-4.1-4.1-5.5-7.8
		c-0.8-2.2-1.4-4.6-1.8-7H22.2z M61.8,65c-5.6,5.6-13,8.6-20.8,8.6c0,0-4.3,0-7.5,0c-0.9-4.2-4.6-7.4-9-7.4c-3.3,0-6.1,1.7-7.7,4.2
		c-2.8-1.4-5.3-3.2-7.4-5.4c-2.6-2.6-4-5-4.6-6.5c0.7-0.2,1.4-0.4,2-0.8c0.8,0.9,1.7,1.7,2.7,2.3c2,1.4,4.3,2,6.6,2
		c2.1,0,4.1-0.6,5.7-1.8c2.5-1.9,4.1-5.1,4.4-9.2c0,0,0,0,0,0c2.1,1.3,4.5,2.1,7,2.1c7.6,0,13.8-6.6,13.8-14.7h3.5
		c0,8.1,6.2,14.7,13.8,14.7c1.9,0,3.7-0.5,5.4-1.3C68,56.9,65.5,61.3,61.8,65z M73.3,30.6c-0.8,0.5-1.9,0.6-3.3,0.6l-34,0.1
		c-0.4,0-0.8,0-1.2,0H4.3c0.7-3.9,2.1-7.6,4.1-10.9c1.5-2.5,3.4-4.8,5.5-6.9c3.9-3.7,8.9-6.5,14.4-8.2l0,0
		c5.5-1.6,11.5-2.1,17.4-1.2c6.1,0.9,11.9,3.1,16.7,6.5c5,3.6,8.9,8.3,11.1,13.7c0.5,1.1,0.9,2.5,0.9,3.7
		C74.4,29.2,73.9,30.2,73.3,30.6z"/>
	<path class="st4" d="M33.6,42.2c-1.5-0.2-2.7-1.5-2.9-3.1c0-0.3-0.3-0.5-0.6-0.5h-2.3c-0.3,0-0.6,0.3-0.6,0.7
		c0.3,3.5,2.9,6.4,6.2,6.7c0.3,0,0.6-0.3,0.6-0.6v-2.5C34.1,42.5,33.9,42.2,33.6,42.2z"/>
	<path class="st4" d="M63.5,42.2c-1.5-0.2-2.7-1.5-2.9-3.1c0-0.3-0.3-0.5-0.6-0.5h-2.3c-0.3,0-0.6,0.3-0.6,0.7
		c0.3,3.5,2.9,6.4,6.2,6.7c0.3,0,0.6-0.3,0.6-0.6v-2.5C63.9,42.5,63.7,42.2,63.5,42.2z"/>
</g>
</svg>
