<?xml version="1.0" encoding="utf-8"?>
<!-- Generator: Adobe Illustrator 24.0.2, SVG Export Plug-In . SVG Version: 6.00 Build 0)  -->
<svg version="1.1" id="Layer_1" xmlns="http://www.w3.org/2000/svg" xmlns:xlink="http://www.w3.org/1999/xlink" x="0px" y="0px"
	 width="143.5px" height="82.3px" viewBox="0 0 143.5 82.3" style="enable-background:new 0 0 143.5 82.3;" xml:space="preserve">
<style type="text/css">
	.st0{fill:#FD804B;}
	.st1{fill:#FFC400;}
	.st2{fill:#14B214;}
	.st3{fill:#FFFFFF;}
	.st4{fill:#1EE592;}
	.st5{fill:#75011D;}
	.st6{fill:#FF5252;}
</style>
<g>
	<g>
		<path class="st0" d="M134.2,63c0,3.8-3.1,6.9-6.9,6.9s-6.9-3.1-6.9-6.9s3.1-6.9,6.9-6.9S134.2,59.2,134.2,63z M134,43.6
			c-3.8,0-6.9,3.1-6.9,6.9s3.1,6.9,6.9,6.9s6.9-3.1,6.9-6.9S137.8,43.6,134,43.6z M134.8,29.2c-3.8,0-6.9,3.1-6.9,6.9
			s3.1,6.9,6.9,6.9c3.8,0,6.9-3.1,6.9-6.9S138.6,29.2,134.8,29.2z M68.7,36.6c-3.8,0-6.9,3.1-6.9,6.9s3.1,6.9,6.9,6.9
			s6.9-3.1,6.9-6.9S72.5,36.6,68.7,36.6z M78.5,11.2c-3.8,0-6.9,3.1-6.9,6.9s3.1,6.9,6.9,6.9s6.9-3.1,6.9-6.9S82.4,11.2,78.5,11.2z
			 M90.5,3.5c-3.8,0-6.9,3.1-6.9,6.9s3.1,6.9,6.9,6.9s6.9-3.1,6.9-6.9S94.3,3.5,90.5,3.5z M105.1,1.8c-3.8,0-6.9,3.1-6.9,6.9
			s3.1,6.9,6.9,6.9s6.9-3.1,6.9-6.9S108.9,1.8,105.1,1.8z M119.3,6.2c-3.8,0-6.9,3.1-6.9,6.9s3.1,6.9,6.9,6.9c3.8,0,6.9-3.1,6.9-6.9
			S123.1,6.2,119.3,6.2z M130.2,16c-3.8,0-6.9,3.1-6.9,6.9s3.1,6.9,6.9,6.9c3.8,0,6.9-3.1,6.9-6.9S134,16,130.2,16z M70.9,22.7
			c-3.8,0-6.9,3.1-6.9,6.9s3.1,6.9,6.9,6.9c3.8,0,6.9-3.1,6.9-6.9S74.7,22.7,70.9,22.7z"/>
		<path class="st1" d="M71,41.7c0-17.3,14.1-31.4,31.4-31.4c17.3,0,31.4,14.1,31.4,31.4c0,17.3-14.1,31.4-31.4,31.4
			c0,0-11.1,0-11.1,0c-18.5,0-27.8-14.9-27.7-18.5c4.4,0,7.4-3.6,7.4-7.4V41.7z"/>
		<ellipse transform="matrix(0.7074 -0.7068 0.7068 0.7074 10.0445 92.8124)" cx="117.1" cy="34.3" rx="3.7" ry="3.7"/>
		<circle cx="95" cy="34.3" r="3.7"/>
		<path d="M94.7,74.9L94.7,74.9L94.7,74.9z"/>
		<circle cx="122.7" cy="39.8" r="1.8"/>
		<circle cx="126.4" cy="36.1" r="1.8"/>
		<circle cx="85.7" cy="39.8" r="1.8"/>
		<circle cx="82" cy="36.1" r="1.8"/>
		<circle cx="78.3" cy="39.8" r="1.8"/>
		<path d="M106.1,56.4c-2.9,0-5.7-0.8-8.1-2.4c-2.4-1.5-4.2-3.6-5.2-6.1c-0.4-0.9,0-2,1-2.4c0.9-0.4,2,0,2.4,1
			c1.6,3.7,5.6,6.2,9.9,6.2c4.2,0,8.2-2.5,9.9-6.3c0.4-0.9,1.5-1.4,2.4-0.9c0.9,0.4,1.4,1.5,0.9,2.4c-1.1,2.4-2.9,4.5-5.2,6.1
			C111.7,55.6,109,56.4,106.1,56.4z"/>
		<path class="st2" d="M108.6,73.1c0-4-4.5-7.4-8.3-7.4h-0.2c-0.4-0.4,0.1-0.8-0.3-1.2c-0.7-3.5-4.7-6.1-8.2-6.1h-2.9l1.2,0
			c0-4.1-4.5-7.4-8.3-7.4h-9.8h-0.1c-0.5-0.3-0.9-0.5-1.4-0.8c-1.1,2.4-3.4,4.3-6.5,4.4c-0.2,0-0.3,0.2-0.3,0.3
			C64.1,59,73.3,73,91.3,73.1c0,0,6.3,0,9.1,0L108.6,73.1"/>
		<path d="M100.4,74.9l-9,0c0,0,0,0-0.1,0v0c-10.3,0-17.4-4.4-21.6-8c-4.8-4.2-7.6-9.1-7.9-11.8c-0.1-0.6,0.1-1.2,0.5-1.6
			c0.4-0.4,0.9-0.7,1.5-0.7c2.2-0.1,4-1.3,4.9-3.3l0.8-1.9l1.8,1.1c0.3,0.2,0.6,0.3,0.9,0.5h9.4c2.3,0,4.8,0.9,6.8,2.6
			c1.6,1.4,2.7,3,3.2,4.8h0c2.1,0,4.3,0.8,6.2,2.1c1.9,1.4,3.2,3.1,3.7,5.1c0,0.1,0.1,0.2,0.1,0.2c4.3,0.7,8.8,4.4,8.8,9.1v1.8
			L100.4,74.9z M108.6,73.1L108.6,73.1L108.6,73.1z M91.3,71.2c0.1,0,6.3,0,9.1,0l5.8,0c-1.1-2.1-3.8-3.7-6-3.7h-1L98.8,67
			c-0.5-0.5-0.6-1.1-0.7-1.5l0,0L98,64.9c-0.5-2.2-3.3-4.7-6.4-4.7h-2.9l0-1.9h-0.6c0-2.5-3-5.5-6.5-5.5H71.2L71,52.7
			c-1.3,1.7-3.1,2.9-5.1,3.5c0.8,1.9,2.7,4.9,6.2,8C75.8,67.3,82.2,71.2,91.3,71.2L91.3,71.2z"/>
		<path d="M139.4,43.6c2.5-1.5,4.1-4.3,4.1-7.4c0-3.9-2.6-7.2-6.1-8.3c0.9-1.4,1.5-3.1,1.5-4.9c0-4.8-3.9-8.8-8.8-8.8
			c-0.7,0-1.5,0.1-2.2,0.3c0.1-0.4,0.1-0.9,0.1-1.3c0-4.8-3.9-8.8-8.8-8.8c-2.2,0-4.2,0.8-5.8,2.2c-1-3.8-4.4-6.6-8.5-6.6
			c-3.4,0-6.4,2-7.8,4.9c-1.6-2-4-3.2-6.8-3.2c-4.7,0-8.5,3.7-8.7,8.3c-1-0.4-2.1-0.6-3.2-0.6c-4.8,0-8.8,3.9-8.8,8.8
			c0,1,0.2,1.9,0.5,2.8c-4.5,0.4-8.1,4.1-8.1,8.7c0,2.4,0.9,4.5,2.5,6.1c-2.8,1.5-4.7,4.4-4.7,7.8c0,4.1,2.8,7.5,6.6,8.5
			c-0.8,0.5-1.8,0.8-2.9,0.8c-1,0-1.8,0.8-1.8,1.8c0,2.6,2.5,7,6.2,10.7c2.6,2.6,5.5,4.7,8.8,6.3c-0.1,0.5-0.1,1-0.1,1.5
			c0,5.1,4.1,9.2,9.2,9.2c4.5,0,8.2-3.2,9.1-7.4l7.6,0c0.1,0,0.1,0,0.2,0c0.9,4.2,4.6,7.4,9,7.4c5.1,0,9.2-4.1,9.2-9.2
			c0-1.2-0.2-2.3-0.6-3.3c0.3-0.2,0.5-0.3,0.8-0.5c1.6,1.6,3.8,2.6,6.2,2.6c4.8,0,8.8-3.9,8.8-8.8c0-1.4-0.3-2.7-0.9-3.9
			c4.3-0.6,7.6-4.2,7.6-8.7C142.8,47.7,141.5,45.2,139.4,43.6z M139.8,36.2c0,2.5-1.8,4.6-4.2,5c-0.1-3.4-0.6-6.8-1.7-10
			c0.3,0,0.5-0.1,0.8-0.1C137.6,31.1,139.8,33.4,139.8,36.2z M130.2,17.9c2.8,0,5.1,2.3,5.1,5.1c0,2-1.1,3.7-2.8,4.5
			c-1.4-3-3.3-5.8-5.6-8.3C127.7,18.4,128.9,17.9,130.2,17.9z M119.3,8.1c2.8,0,5.1,2.3,5.1,5.1c0,1.1-0.3,2-0.9,2.8
			c-2.6-2.2-5.6-3.9-8.7-5.2C115.7,9.2,117.4,8.1,119.3,8.1z M105.1,3.7c2.8,0,5.1,2.3,5.1,5.1c0,0.2,0,0.4,0,0.6
			c-2.5-0.6-5.1-0.9-7.7-0.9c-0.8,0-1.6,0-2.4,0.1C100.2,5.8,102.4,3.7,105.1,3.7z M90.5,5.4c2.4,0,4.3,1.6,4.9,3.8
			c-3.3,0.7-6.5,1.9-9.4,3.6c-0.4-0.7-0.6-1.5-0.6-2.3C85.4,7.6,87.7,5.4,90.5,5.4z M78.5,13c1.6,0,3.1,0.8,4,2
			c-1.3,1-2.5,2-3.6,3.2c-1.3,1.3-2.4,2.6-3.4,4c0,0,0,0,0,0c-1.2-0.9-2-2.4-2-4C73.5,15.3,75.7,13,78.5,13z M70.9,24.5
			c0.9,0,1.8,0.2,2.5,0.7c0,0,0,0,0,0c-1.7,2.9-2.9,6-3.6,9.3c-2.3-0.5-4.1-2.5-4.1-5C65.9,26.8,68.1,24.5,70.9,24.5z M63.6,43.5
			c0-2.8,2.3-5.1,5.1-5.1c0.2,0,0.4,0,0.6,0c-0.1,1.1-0.2,2.1-0.2,3.2v5.5c0,0.4-0.1,0.9-0.2,1.3c-0.1,0-0.2,0-0.3,0
			C65.9,48.5,63.6,46.3,63.6,43.5z M102.4,71.2c0,0-4.3,0-7.6,0c-0.9-4.2-4.6-7.4-9-7.4c-3.3,0-6.1,1.7-7.8,4.2
			c-2.8-1.4-5.3-3.2-7.5-5.4c-2.6-2.6-4-5-4.6-6.5c1.7-0.4,3.2-1.3,4.4-2.6c0.2-0.3,0.5-0.5,0.7-0.8c0.2,0,0.3,0.1,0.5,0.1h10.2
			c2.7,0,5,1.8,6,3.7h-3.7c-1,0-1.8,0.8-1.8,1.8s0.8,1.8,1.8,1.8h7.7c2.6,0,5,1.7,6,3.6h-0.4c-1,0-1.8,0.8-1.8,1.8
			c0,1,0.8,1.8,1.8,1.8h3.1c2.5,0,4.8,1.6,5.9,3.4C104.9,71.1,103.7,71.2,102.4,71.2z M109.9,70.2c-0.5-1.4-1.5-2.7-2.9-3.8
			c-1.6-1.3-3.6-2.2-5.5-2.5c-0.4-1.8-1.5-3.5-3.2-4.9c-2-1.6-4.4-2.6-6.8-2.6h0c-0.4-1.8-1.5-3.5-3.2-4.8c-2-1.6-4.4-2.6-6.8-2.6
			h-9c0.1-0.6,0.2-1.3,0.2-1.9v-5.5c0-7.9,3.1-15.3,8.7-20.9c5.6-5.6,13-8.7,20.9-8.7c7.9,0,15.3,3.1,20.9,8.7
			c5.6,5.6,8.7,13,8.7,20.9c0,7.9-3.1,15.3-8.7,20.9C119.5,66.3,114.9,68.9,109.9,70.2z M127.3,68.1c-1.2,0-2.4-0.5-3.3-1.2
			c0.6-0.6,1.3-1.1,1.9-1.7c1.8-1.8,3.4-3.8,4.7-5.9c1.1,0.9,1.7,2.3,1.7,3.8C132.3,65.8,130.1,68.1,127.3,68.1z M134,55.6
			c-0.5,0-0.9-0.1-1.3-0.2c1.4-3.1,2.3-6.4,2.7-9.8c2.1,0.6,3.7,2.6,3.7,4.9C139.1,53.3,136.8,55.6,134,55.6z"/>
	</g>
	<g>
		<g>
			<path class="st3" d="M67.3,36.7c-2.1,0-3.8-1.7-3.8-3.8v-8.4c0,0,0-0.1-0.1-0.1h-7.7c-2.7,0-4.9-2.2-4.9-4.9
				c0-1.3,1.1-2.4,2.4-2.4h10.2c0,0,0.1,0,0.1-0.1c0,0,0,0,0-0.1c0,0,0,0-0.1,0h-9.3c-2.7,0-5-2-5.4-4.7c-0.1-0.6,0.1-1.3,0.5-1.8
				c0.4-0.5,1.1-0.8,1.7-0.8h12.6c0,0,0.1,0,0.1-0.1c0,0,0,0,0-0.1c0,0,0,0-0.1,0H52c-2.3,0-4.2-1.4-5.1-3.4
				c-0.3-0.9-0.2-1.8,0.3-2.6c0.5-0.8,1.4-1.2,2.3-1.2H65c0.8,0,1.6,0.3,2.2,0.7L71,5.8c1,0.7,1.5,1.8,1.5,3V33
				c0,2.1-1.7,3.8-3.8,3.8H67.3z"/>
		</g>
		<g>
			<path class="st4" d="M12.9,41.1c0-17.3,14.1-31.4,31.4-31.4c17.3,0,31.4,14.1,31.4,31.4c0,17.3-14.1,31.4-31.4,31.4
				c0,0-11.1,0-11.1,0C14.7,72.4,5.4,57.6,5.5,54c4.4,0,7.4-3.6,7.4-7.4V41.1z"/>
		</g>
		<g>
			<path class="st3" d="M21.1,35.5c-2.1,0-3.8-1.7-3.8-3.8v-7.2c0,0,0-0.1-0.1-0.1h-6.4c-2.7,0-4.9-2.2-4.9-4.9
				c0-1.3,1.1-2.4,2.4-2.4h8.8c0,0,0.1,0,0.1-0.1c0,0,0,0,0-0.1c0,0,0,0-0.1,0h-8c-2.7,0-5-2-5.4-4.7C3.8,11.7,4,11,4.4,10.5
				C4.9,10,5.5,9.8,6.1,9.8h11.2c0,0,0.1,0,0.1-0.1c0,0,0,0,0-0.1c0,0,0,0-0.1,0H7.1C4.9,9.6,2.9,8.3,2,6.2C1.7,5.3,1.8,4.3,2.3,3.5
				c0.5-0.8,1.4-1.2,2.3-1.2h14.1c0.8,0,1.6,0.3,2.2,0.7l3.8,2.8c1,0.7,1.5,1.8,1.5,3v22.9c0,2.1-1.7,3.8-3.8,3.8H21.1z"/>
		</g>
		<g>
			<circle cx="59" cy="32" r="3.7"/>
		</g>
		<g>
			<circle cx="36.8" cy="32" r="3.7"/>
		</g>
		<g>
			<path class="st5" d="M31.4,41.1h33.1c0.1,0,0.2,0.1,0.2,0.2l0,1.5c0,9.3-7.5,16.8-16.7,16.8c-9.2,0-16.6-7.7-16.6-17v-1.3
				C31.2,41.2,31.3,41.1,31.4,41.1z"/>
		</g>
		<g>
			<path d="M47.9,61.5C47.9,61.5,47.9,61.5,47.9,61.5c-10.3,0-18.5-8.5-18.5-18.8v-1.3c0-1.1,0.9-2,2-2h33.1c0.5,0,1,0.2,1.4,0.6
				c0.4,0.4,0.6,0.9,0.6,1.4l0,1.5c0,5-2,9.7-5.5,13.2C57.5,59.6,52.8,61.5,47.9,61.5z M33.1,43c0.2,8.2,6.7,14.8,14.8,14.8
				c0,0,0,0,0.1,0c3.9,0,7.6-1.5,10.4-4.3c2.8-2.8,4.4-6.5,4.4-10.5H33.1z"/>
		</g>
		<g>
			<g>
				<path class="st6" d="M40.8,55.9c0.8-3.2,3.7-5.5,7.1-5.5c3.4,0,6.3,2.3,7.1,5.5c-2.1,1.2-4.6,1.8-7.1,1.8
					C45.3,57.8,42.9,57.1,40.8,55.9z"/>
			</g>
		</g>
		<g>
			<g>
				<path class="st6" d="M47.9,59.6c-2.7,0-5.4-0.7-7.8-2c-0.9-0.5-1.3-1.5-1-2.4c1.2-3.9,4.8-6.6,8.9-6.6c4.1,0,7.7,2.7,8.9,6.6
					c0.3,0.9-0.1,2-1,2.4C53.4,58.9,50.6,59.6,47.9,59.6z"/>
			</g>
		</g>
		<path d="M65.9,39.8c-0.4-0.4-0.9-0.6-1.4-0.6H31.4c-1.1,0-2,0.9-2,2v1.3c0,6.9,3.7,12.9,9.1,16.2c0.2,0.2,0.5,0.3,0.7,0.5
			c2.7,1.4,5.7,2.2,8.7,2.2c3,0,6-0.8,8.7-2.2c0.1-0.1,0.2-0.1,0.4-0.2c1.4-0.8,2.8-1.8,4-3c3.5-3.5,5.5-8.2,5.5-13.2l0-1.5
			C66.5,40.7,66.3,40.2,65.9,39.8z M40.8,55.7c0.9-3.1,3.7-5.3,7.1-5.3c3.3,0,6.2,2.2,7.1,5.3c0,0.1,0,0.2,0,0.2
			c-2.1,1.2-4.5,1.8-7,1.8c0,0,0,0-0.1,0c-2.5,0-4.9-0.7-7-1.9C40.8,55.8,40.8,55.8,40.8,55.7z M58.4,53.4c-0.1,0.1-0.1,0.1-0.2,0.2
			c-0.8-1.8-2-3.4-3.6-4.6c-1.9-1.5-4.3-2.3-6.7-2.3c-2.4,0-4.8,0.8-6.7,2.3c-1.5,1.2-2.8,2.8-3.5,4.5c-2.8-2.7-4.5-6.4-4.6-10.6
			h29.7C62.7,46.9,61.2,50.6,58.4,53.4z"/>
		<path d="M77.5,41.1c0-4.9-1.1-9.7-3.1-14.1V8.9c0-1.8-0.9-3.5-2.3-4.5l-3.8-2.8c-1-0.7-2.1-1.1-3.3-1.1H49.5c-1.5,0-3,0.8-3.9,2
			c-0.9,1.3-1,2.9-0.5,4.3c0.1,0.4,0.3,0.7,0.5,1c-0.5,0-1,0-1.5,0C38.5,7.9,33,9.3,28.2,12V8.9c0-1.8-0.9-3.5-2.3-4.5l-3.8-2.8
			c-1-0.7-2.1-1.1-3.3-1.1H4.7c-1.5,0-3,0.8-3.9,2c-0.9,1.3-1,2.9-0.5,4.3c0.5,1.2,1.3,2.3,2.3,3.1c-0.5,0.8-0.7,1.7-0.6,2.7
			c0.2,1.7,1.1,3.3,2.4,4.5c0.1,0.1,0.2,0.2,0.3,0.3c-0.4,0.7-0.7,1.4-0.7,2.3c0,3.7,3,6.7,6.7,6.7h3.6c-2.2,4.5-3.4,9.5-3.4,14.8
			v5.5c0,2.7-2.1,5.5-5.6,5.5c-1,0-1.8,0.8-1.8,1.8c0,2.6,2.5,7,6.2,10.7c2.6,2.6,5.5,4.7,8.8,6.3c-0.1,0.5-0.1,1-0.1,1.5
			c0,5.1,4.1,9.2,9.2,9.2c4.5,0,8.2-3.2,9.1-7.4l7.6,0c0.1,0,0.1,0,0.2,0c0.9,4.2,4.6,7.4,9,7.4c5.1,0,9.2-4.1,9.2-9.2
			c0-1.2-0.2-2.3-0.6-3.3c2-1.3,3.9-2.8,5.7-4.5C74,58.3,77.5,50,77.5,41.1z M63.6,7.8H52c-1.5,0-2.8-0.9-3.4-2.3
			c-0.3-0.6,0.2-1.3,0.9-1.3H65c0.4,0,0.8,0.1,1.1,0.4l3.8,2.8c0.5,0.4,0.8,0.9,0.8,1.5V21c-0.9-1.2-1.9-2.3-2.9-3.3
			c-2.4-2.4-5.2-4.5-8.2-6h4c1.1,0,1.9-0.8,1.9-1.9v0C65.5,8.6,64.7,7.8,63.6,7.8z M7.9,19.6c0-0.3,0.3-0.6,0.6-0.6h8.8
			c1.1,0,1.9-0.8,1.9-1.9c0-1.1-0.8-1.9-1.9-1.9h-8c-1.8,0-3.3-1.4-3.6-3.1c0-0.3,0.2-0.5,0.4-0.5h11.2c1.1,0,1.9-0.8,1.9-1.9v0
			c0-1.1-0.8-1.9-1.9-1.9H7.1c-1.5,0-2.8-0.9-3.4-2.3C3.5,4.8,4,4.2,4.7,4.2h14.1c0.4,0,0.8,0.1,1.1,0.4l3.8,2.8
			c0.5,0.4,0.8,0.9,0.8,1.5v22.9c0,1.1-0.9,1.9-1.9,1.9h-1.5c-1.1,0-1.9-0.9-1.9-1.9v-7.2c0-1.1-0.9-1.9-1.9-1.9h-6.4
			C9.2,22.6,7.9,21.3,7.9,19.6z M44.3,70.6c0,0-4.3,0-7.6,0c-0.9-4.2-4.6-7.4-9-7.4c-3.3,0-6.1,1.7-7.8,4.2
			c-2.8-1.4-5.3-3.2-7.5-5.4c-2.6-2.6-4-5-4.6-6.5c1.7-0.4,3.2-1.3,4.4-2.6c1.6-1.7,2.5-4,2.5-6.4v-5.5c0-2.6,0.3-5.2,1-7.7
			c0.7,2.3,2.8,3.9,5.4,3.9h1.5c3.1,0,5.6-2.5,5.6-5.6V16.3c4.8-3.1,10.3-4.8,16.1-4.8c7.9,0,15.3,3.1,20.9,8.7
			c5.6,5.6,8.7,13,8.7,20.9c0,7.9-3.1,15.3-8.7,20.9C59.6,67.6,52.2,70.6,44.3,70.6z"/>
	</g>
</g>
</svg>
