<?xml version="1.0" encoding="utf-8"?>
<!-- Generator: Adobe Illustrator 24.0.2, SVG Export Plug-In . SVG Version: 6.00 Build 0)  -->
<svg version="1.1" id="Layer_1" xmlns="http://www.w3.org/2000/svg" xmlns:xlink="http://www.w3.org/1999/xlink" x="0px" y="0px"
	 width="69.4px" height="69.7px" viewBox="0 0 69.4 69.7" style="enable-background:new 0 0 69.4 69.7;" xml:space="preserve">
<style type="text/css">
	.st0{fill:#CC6A00;}
	.st1{fill:#E69700;}
	.st2{fill:none;stroke:#000000;stroke-width:4.4391;stroke-miterlimit:10;}
	.st3{fill:#FDE32F;stroke:#000000;stroke-width:3.8876;stroke-miterlimit:10;}
</style>
<g>
	<g>
		<path class="st0" d="M62.2,67.5h-55c-2.7,0-5-2.2-5-5V23.2c0-2.7,2.2-5,5-5h55c2.7,0,5,2.2,5,5v39.4
			C67.2,65.3,64.9,67.5,62.2,67.5z"/>
		<path class="st1" d="M64.3,20l-5.5,13.2c-1.5,3.7-5.1,6-9.1,6H19.6c-4,0-7.5-2.4-9.1-6L5.1,20"/>
		<path class="st2" d="M62.2,67.5h-55c-2.7,0-5-2.2-5-5V23.2c0-2.7,2.2-5,5-5h55c2.7,0,5,2.2,5,5v39.4
			C67.2,65.3,64.9,67.5,62.2,67.5z"/>
		<path class="st2" d="M64.3,20l-5.5,13.2c-1.5,3.7-5.1,6-9.1,6H19.6c-4,0-7.5-2.4-9.1-6L5.1,20"/>
		<path class="st3" d="M35.4,46.8H34c-2.2,0-4-1.8-4-4v-8.1c0-2.2,1.8-4,4-4h1.4c2.2,0,4,1.8,4,4v8.1C39.4,45.1,37.6,46.8,35.4,46.8
			z"/>
	</g>
	<path class="st2" d="M20,16.9L20,16.9c0-8.1,6.6-14.7,14.7-14.7h0c8.1,0,14.7,6.6,14.7,14.7v0"/>
</g>
</svg>
